<svg width="42.000000" height="46.547119" viewBox="0 0 42 46.5471" fill="none" xmlns="http://www.w3.org/2000/svg" xmlns:xlink="http://www.w3.org/1999/xlink">
	<desc>
			Created with Pixso.
	</desc>
	<defs/>
	<path id="icon" d="M19.71 0.38C20.49 -0.13 21.5 -0.13 22.28 0.38C23.19 0.98 26.01 2.77 29.49 4.41C33.01 6.07 36.98 7.46 40.25 7.46C41.21 7.46 42 8.24 42 9.21C42 25.58 37.26 34.91 32.16 40.18C27.1 45.41 21.89 46.42 21.31 46.51L21.3 46.52L21.3 46.52C21.29 46.52 21.27 46.52 21.25 46.52C21.2 46.53 21.11 46.54 21 46.54C20.88 46.54 20.79 46.53 20.74 46.52C20.73 46.52 20.72 46.52 20.72 46.52C20.71 46.52 20.69 46.52 20.69 46.52L20.68 46.51C20.1 46.42 14.89 45.41 9.83 40.18C4.73 34.91 0 25.58 0 9.21C0 8.24 0.78 7.46 1.75 7.46C5.01 7.46 8.98 6.07 12.5 4.41C15.98 2.77 18.8 0.98 19.71 0.38ZM21 3.72C19.66 4.56 17.08 6.12 14 7.58C10.88 9.04 7.1 10.48 3.51 10.86C3.82 25.46 8.16 33.42 12.34 37.75C16.14 41.67 19.96 42.77 21 43.01C22.03 42.77 25.85 41.67 29.65 37.75C33.83 33.42 38.17 25.46 38.48 10.86C34.89 10.48 31.11 9.04 27.99 7.58C24.91 6.12 22.33 4.56 21 3.72ZM31.53 16.11C32.23 16.77 32.26 17.88 31.6 18.58L20.54 30.25C19.89 30.93 18.81 30.98 18.1 30.35L12.83 25.69C12.11 25.05 12.04 23.94 12.68 23.22C13.33 22.49 14.43 22.43 15.16 23.07L19.16 26.61L29.06 16.17C29.72 15.47 30.83 15.44 31.53 16.11Z" fill="#2B8A3E" fill-opacity="1.000000" fill-rule="evenodd"/>
</svg>
