<svg viewBox="0 0 56 47.399" fill="none" xmlns="http://www.w3.org/2000/svg" xmlns:xlink="http://www.w3.org/1999/xlink">
	<path d="M7.68286 24.6227C7.68286 28.4792 8.7561 32.1703 10.7524 35.3666C11.3826 36.3755 11.0757 37.7043 10.0667 38.3345C9.05786 38.9647 7.72925 38.6576 7.09888 37.6487C4.67798 33.7727 3.37524 29.2919 3.37524 24.6227C3.37524 11.0249 14.4001 0 27.998 0C41.5959 0 52.6208 11.0249 52.6208 24.6227C52.6208 29.2891 51.3176 33.7697 48.8977 37.6479C48.2678 38.6571 46.9395 38.9647 45.9302 38.335C44.9209 37.7053 44.6133 36.3766 45.2432 35.3675C47.2395 32.1682 48.3132 28.4766 48.3132 24.6227C48.3132 13.404 39.2168 4.30768 27.998 4.30768C16.7793 4.30768 7.68286 13.404 7.68286 24.6227ZM27.9341 17.3013C29.4138 15.8173 31.3545 15.0742 33.293 15.0742C35.7117 15.0742 38.1304 16.2265 39.6575 18.5333C41.6606 21.5573 41.0706 25.6237 38.5095 28.1933L30.7534 35.9708C29.9739 36.7505 28.9529 37.1404 27.9341 37.1404C26.9133 37.1404 25.8923 36.7505 25.1147 35.9708L17.3586 28.1933C14.7957 25.6237 14.2078 21.5573 16.2085 18.5333C17.7378 16.2265 20.1545 15.0742 22.5732 15.0742C24.5139 15.0742 26.4543 15.8173 27.9341 17.3013ZM33.3594 19.3755C34.4771 19.3755 35.4873 19.9333 36.1333 20.9047C36.9563 22.1496 36.6956 23.9717 35.5261 25.1456L28.0005 32.6906L20.4749 25.1456C19.3054 23.9717 19.0447 22.1496 19.8677 20.9047C20.5115 19.9333 21.5217 19.3755 22.6396 19.3755C23.512 19.3755 24.3325 19.7158 24.9507 20.3361L28.0005 23.3945L31.0503 20.3361C31.6663 19.7158 32.4871 19.3755 33.3594 19.3755ZM2.15381 47.399L53.8462 47.399C55.0356 47.399 56 46.4347 56 45.2452C56 44.0556 55.0356 43.0913 53.8462 43.0913L2.15381 43.0913C0.964355 43.0913 0 44.0556 0 45.2452C0 46.4347 0.964355 47.399 2.15381 47.399Z" clip-rule="evenodd" fill-opacity="1.000000" fill-rule="evenodd"/>
</svg>
