<svg width="11.689453" height="20.801758" viewBox="0 0 11.6895 20.8018" fill="none" xmlns="http://www.w3.org/2000/svg" xmlns:xlink="http://www.w3.org/1999/xlink">
	<desc>
			Created with Pixso.
	</desc>
	<defs/>
	<path id="?" d="M4.09 14.91L6.48 14.91L6.48 14.79C6.52 12.33 7.15 11.25 8.9 10.16C10.65 9.09 11.68 7.56 11.68 5.37C11.68 2.26 9.42 0 5.92 0C2.7 0 0.15 1.98 0 5.37L2.5 5.37C2.65 3.02 4.29 2.07 5.92 2.07C7.79 2.07 9.3 3.3 9.3 5.25C9.3 6.83 8.4 7.96 7.24 8.67C5.29 9.85 4.12 11.01 4.09 14.79L4.09 14.91ZM5.36 20.8C6.35 20.8 7.15 19.99 7.15 19.01C7.15 18.02 6.35 17.22 5.36 17.22C4.38 17.22 3.58 18.02 3.58 19.01C3.58 19.99 4.38 20.8 5.36 20.8Z" fill="#44744C" fill-opacity="1.000000" fill-rule="nonzero"/>
</svg>
