<svg width="36.000000" height="36.000000" viewBox="0 0 36 36" fill="none" xmlns="http://www.w3.org/2000/svg" xmlns:xlink="http://www.w3.org/1999/xlink">
	<desc>
			Created with Pixso.
	</desc>
	<defs/>
	<path id="Vector" d="M10.26 12.71C9.87 11.76 10.32 10.66 11.28 10.26C12.23 9.87 13.33 10.32 13.73 11.28L16.61 18.23C17.29 17.07 18.48 16.24 19.89 16.06L25.27 15.34C26.74 15.14 28.14 16.05 28.55 17.48L31 26.01C32.4 30.87 27.51 35.18 22.86 33.18L21.85 32.74C19.31 31.65 16.66 30.84 13.95 30.31L10.11 29.55C8.75 29.29 8.48 27.46 9.71 26.82C10.75 26.28 11.91 26 13.08 26L15.77 26L10.26 12.71Z" fill="#44744C" fill-opacity="1.000000" fill-rule="evenodd"/>
	<g opacity="0.600000">
		<path id="Ellipse 2155 (Stroke)" d="M12 5.25C8.27 5.25 5.25 8.27 5.25 12C5.25 14.72 6.86 17.07 9.18 18.13C9.56 18.31 9.72 18.75 9.55 19.13C9.38 19.5 8.93 19.67 8.56 19.5C5.72 18.19 3.75 15.33 3.75 12C3.75 7.44 7.44 3.75 12 3.75C16.55 3.75 20.25 7.44 20.25 12C20.25 12.23 20.24 12.46 20.22 12.68C20.18 13.09 19.82 13.4 19.41 13.37C19 13.33 18.69 12.97 18.72 12.56C18.74 12.37 18.75 12.18 18.75 12C18.75 8.27 15.72 5.25 12 5.25Z" fill="#44744C" fill-opacity="1.000000" fill-rule="evenodd"/>
	</g>
</svg>
