<svg viewBox="0 0 56 53.8403" xmlns="http://www.w3.org/2000/svg" xmlns:xlink="http://www.w3.org/1999/xlink">
	<path  d="M55.6792 19.2227C55.0547 20.2351 53.7278 20.5497 52.7153 19.9254L28 4.68427L3.28467 19.9254C2.27222 20.5497 0.945312 20.2351 0.320801 19.2227C-0.303467 18.2101 0.0112305 16.8832 1.02368 16.2589L26.8694 0.320557C27.5625 -0.106873 28.4375 -0.106873 29.1306 0.320557L45.2329 10.2504L45.2329 4.31061C45.2329 3.12109 46.1973 2.15674 47.3867 2.15674C48.5762 2.15674 49.5405 3.12109 49.5405 4.31061L49.5405 12.9067L54.9763 16.2589C55.9888 16.8832 56.3035 18.2101 55.6792 19.2227ZM45.2305 23.6868L45.2305 47.3788C45.2305 48.5671 44.2651 49.5327 43.0767 49.5327L12.9233 49.5327C11.7349 49.5327 10.7695 48.5671 10.7695 47.3788L10.7695 23.6868C10.7695 22.4973 9.80518 21.533 8.61548 21.533C7.42603 21.533 6.46167 22.4973 6.46167 23.6868L6.46167 47.3788C6.46167 50.9462 9.35596 53.8403 12.9233 53.8403L43.0767 53.8403C46.644 53.8403 49.5383 50.9462 49.5383 47.3788L49.5383 23.6868C49.5383 22.4973 48.574 21.533 47.3845 21.533C46.1948 21.533 45.2305 22.4973 45.2305 23.6868ZM36.6152 27.9991C36.6152 25.62 34.6868 23.6914 32.3076 23.6914L23.6924 23.6914C21.3132 23.6914 19.3848 25.62 19.3848 27.9991L19.3848 36.6144C19.3848 38.9934 21.3132 40.922 23.6924 40.922L32.3076 40.922C34.6868 40.922 36.6152 38.9934 36.6152 36.6144L36.6152 27.9991ZM23.6924 36.6233L23.6924 28.0081L32.3076 28.0081L32.3076 36.6233L23.6924 36.6233Z" clip-rule="evenodd" fill-opacity="1.000000" fill-rule="evenodd"/>
</svg>
