<svg width="82.000000" height="73.555542" viewBox="0 0 82 73.5555" fill="none" xmlns="http://www.w3.org/2000/svg" xmlns:xlink="http://www.w3.org/1999/xlink">
	<desc>
			Created with Pixso.
	</desc>
	<defs/>
	<path id="path (Border)" d="M19.88 48.22L15.66 48.22C14.33 48.22 13.09 48.45 11.95 48.93C10.81 49.4 9.77 50.1 8.83 51.05C7.88 51.99 7.17 53.03 6.7 54.17C6.23 55.31 6 56.55 6 57.88C6 59.22 6.23 60.46 6.7 61.59C7.17 62.73 7.88 63.78 8.83 64.72C9.77 65.66 10.81 66.37 11.95 66.84C13.09 67.31 14.33 67.55 15.66 67.55L49.76 67.55C48.85 66.41 48.12 65.19 47.59 63.9C46.82 62.05 46.44 60.05 46.44 57.88C46.44 55.72 46.82 53.72 47.59 51.87C48.12 50.57 48.85 49.36 49.76 48.22L19.88 48.22ZM62.11 48.22C62.93 48.22 63.64 47.92 64.23 47.34C64.81 46.75 65.11 46.05 65.11 45.22C65.11 44.39 64.81 43.68 64.23 43.1C63.64 42.51 62.93 42.22 62.11 42.22L22.88 42.22L22.88 11.44C22.88 10.69 23.02 9.99 23.28 9.35C23.55 8.71 23.95 8.12 24.48 7.59C25.01 7.06 25.6 6.66 26.24 6.39C26.88 6.13 27.58 6 28.33 6L70.55 6C71.3 6 72 6.13 72.64 6.39C73.28 6.66 73.87 7.06 74.4 7.59C74.93 8.12 75.33 8.71 75.6 9.35C75.86 9.99 76 10.69 76 11.44L76 57.88C76 59.22 75.76 60.46 75.29 61.59C74.82 62.73 74.11 63.78 73.16 64.72C72.22 65.66 71.18 66.37 70.04 66.84C68.9 67.31 67.66 67.55 66.33 67.55L62.11 67.55C60.77 67.55 59.53 67.31 58.4 66.84C57.26 66.37 56.21 65.66 55.27 64.72C54.33 63.78 53.62 62.73 53.15 61.59C52.68 60.46 52.44 59.22 52.44 57.88C52.44 56.55 52.68 55.31 53.15 54.17C53.62 53.03 54.33 51.99 55.27 51.05C56.21 50.1 57.26 49.4 58.4 48.93C59.53 48.45 60.77 48.22 62.11 48.22ZM62.11 73.55L15.66 73.55C13.5 73.55 11.49 73.17 9.65 72.4C7.8 71.64 6.11 70.49 4.58 68.96C3.05 67.43 1.91 65.74 1.14 63.9C0.38 62.05 0 60.05 0 57.88C0 55.72 0.38 53.72 1.14 51.87C1.91 50.02 3.05 48.34 4.58 46.81C6.11 45.28 7.8 44.13 9.65 43.36C11.49 42.6 13.5 42.22 15.66 42.22L16.88 42.22L16.88 11.44C16.88 9.86 17.16 8.39 17.72 7.05C18.28 5.7 19.12 4.46 20.24 3.35C21.35 2.23 22.59 1.39 23.93 0.83C25.28 0.27 26.75 0 28.33 0L70.55 0C72.13 0 73.6 0.27 74.94 0.83C76.29 1.39 77.53 2.23 78.64 3.35C79.76 4.46 80.6 5.7 81.16 7.05C81.72 8.39 82 9.86 82 11.44L82 57.88C82 60.05 81.61 62.05 80.85 63.9C80.08 65.74 78.94 67.43 77.41 68.96C75.88 70.49 74.19 71.64 72.34 72.4C70.5 73.17 68.49 73.55 66.33 73.55L62.11 73.55Z" fill="#E5F6F0" fill-opacity="1.000000" fill-rule="evenodd"/>
</svg>
