<svg width="64.000000" height="64.000000" viewBox="0 0 64 64" fill="none" xmlns="http://www.w3.org/2000/svg" xmlns:xlink="http://www.w3.org/1999/xlink">
	<desc>
			Created with Pixso.
	</desc>
	<defs>
		<clipPath id="clip820_37699">
			<rect id="Close" width="23.977747" height="23.999447" transform="translate(20.011108 20.000000)" fill="white" fill-opacity="0"/>
		</clipPath>
	</defs>
	<rect id="Group 2087324316" rx="32.000000" width="64.000000" height="64.000000" fill="#FFFFFF" fill-opacity="0"/>
	<g clip-path="url(#clip820_37699)">
		<path id="Vector" d="M33.39 32L40.42 23.61C40.54 23.47 40.44 23.26 40.26 23.26L38.12 23.26C38 23.26 37.88 23.32 37.79 23.41L32 30.33L26.2 23.41C26.12 23.32 26 23.26 25.87 23.26L23.73 23.26C23.55 23.26 23.45 23.47 23.57 23.61L30.6 32L23.57 40.38C23.54 40.41 23.52 40.44 23.52 40.49C23.51 40.53 23.52 40.57 23.53 40.6C23.55 40.64 23.58 40.67 23.61 40.69C23.65 40.72 23.69 40.73 23.73 40.73L25.87 40.73C25.99 40.73 26.11 40.67 26.2 40.58L32 33.66L37.79 40.58C37.87 40.67 38 40.73 38.12 40.73L40.26 40.73C40.44 40.73 40.54 40.51 40.42 40.38L33.39 32Z" fill="#343A40" fill-opacity="0.500000" fill-rule="nonzero"/>
	</g>
</svg>
