<svg width="31.500000" height="31.500000" viewBox="0 0 31.5 31.5" fill="none" xmlns="http://www.w3.org/2000/svg" xmlns:xlink="http://www.w3.org/1999/xlink">
	<desc>
			Created with Pixso.
	</desc>
	<defs/>
	<path id="Vector" d="M15.75 0C7.05 0 0 7.05 0 15.75C0 24.44 7.05 31.5 15.75 31.5C24.44 31.5 31.5 24.44 31.5 15.75C31.5 7.05 24.44 0 15.75 0ZM16.87 23.34C16.87 23.49 16.74 23.62 16.59 23.62L14.9 23.62C14.75 23.62 14.62 23.49 14.62 23.34L14.62 13.78C14.62 13.62 14.75 13.5 14.9 13.5L16.59 13.5C16.74 13.5 16.87 13.62 16.87 13.78L16.87 23.34ZM15.75 11.25C15.3 11.24 14.88 11.05 14.57 10.74C14.26 10.42 14.09 10 14.09 9.56C14.09 9.12 14.26 8.69 14.57 8.38C14.88 8.06 15.3 7.88 15.75 7.87C16.19 7.88 16.61 8.06 16.92 8.38C17.23 8.69 17.4 9.12 17.4 9.56C17.4 10 17.23 10.42 16.92 10.74C16.61 11.05 16.19 11.24 15.75 11.25Z" fill="#339AF0" fill-opacity="1.000000" fill-rule="nonzero"/>
</svg>
