<svg width="105.000000" height="105.000000" viewBox="0 0 105 105" fill="none" xmlns="http://www.w3.org/2000/svg" xmlns:xlink="http://www.w3.org/1999/xlink">
	<desc>
			Created with Pixso.
	</desc>
	<defs/>
	<path id="Vector" d="M52.5 0C23.5 0 0 23.5 0 52.5C0 81.49 23.5 105 52.5 105C81.49 105 105 81.49 105 52.5C105 23.5 81.49 0 52.5 0ZM75.17 35.35L50.49 69.57C50.15 70.05 49.69 70.44 49.16 70.71C48.64 70.98 48.05 71.13 47.46 71.13C46.87 71.13 46.29 70.98 45.76 70.71C45.23 70.44 44.78 70.05 44.43 69.57L29.82 49.32C29.37 48.7 29.82 47.83 30.58 47.83L36.08 47.83C37.27 47.83 38.41 48.41 39.11 49.39L47.46 60.97L65.88 35.42C66.58 34.45 67.71 33.86 68.91 33.86L74.41 33.86C75.17 33.86 75.62 34.73 75.17 35.35Z" fill="#1A9E32" fill-opacity="1.000000" fill-rule="nonzero"/>
</svg>
