<svg width="50.750000" height="40.833374" viewBox="0 0 50.75 40.8334" fill="none" xmlns="http://www.w3.org/2000/svg" xmlns:xlink="http://www.w3.org/1999/xlink">
	<desc>
			Created with Pixso.
	</desc>
	<defs/>
	<path id="icon" d="M29.39 6.45C29.24 6.82 29.04 7.16 28.8 7.47L35.95 15.77C36.13 15.99 36.43 16.04 36.67 15.9L41.43 13.2C41.4 12.88 41.41 12.55 41.45 12.22C41.59 11.2 42.05 10.25 42.78 9.53C43.51 8.8 44.45 8.34 45.47 8.2C46.49 8.07 47.52 8.27 48.41 8.79C49.3 9.3 50 10.09 50.39 11.04C50.78 11.99 50.85 13.04 50.59 14.04C50.32 15.03 49.73 15.91 48.92 16.53C48.48 16.87 47.98 17.12 47.46 17.29L43.5 37.53C43.12 39.45 41.44 40.83 39.49 40.83L10.67 40.83C8.71 40.83 7.03 39.45 6.66 37.53L2.65 17.04C2.36 16.9 2.08 16.73 1.82 16.53C1.01 15.91 0.42 15.03 0.15 14.04C-0.11 13.04 -0.04 11.99 0.35 11.04C0.74 10.09 1.44 9.3 2.33 8.79C3.22 8.27 4.25 8.07 5.27 8.2C6.29 8.34 7.23 8.8 7.96 9.53C8.69 10.25 9.15 11.2 9.29 12.22C9.35 12.65 9.34 13.09 9.28 13.51L13.48 15.9C13.72 16.04 14.03 15.99 14.21 15.77L21.35 7.47C21.12 7.16 20.92 6.82 20.77 6.45C20.37 5.5 20.3 4.45 20.57 3.45C20.84 2.46 21.42 1.58 22.24 0.96C23.05 0.33 24.05 0 25.08 0C26.11 0 27.1 0.33 27.92 0.96C28.73 1.58 29.32 2.46 29.59 3.45C29.85 4.45 29.78 5.5 29.39 6.45ZM16.86 18.06L25.08 8.51L33.29 18.06C34.56 19.54 36.71 19.91 38.4 18.94L44.21 15.65L40.06 36.86C40.01 37.13 39.77 37.33 39.49 37.33L10.67 37.33C10.39 37.33 10.15 37.13 10.09 36.86L5.94 15.65L11.75 18.94C13.45 19.91 15.59 19.54 16.86 18.06ZM25.08 33.83C27.66 33.83 29.75 31.74 29.75 29.16C29.75 26.58 27.66 24.5 25.08 24.5C22.5 24.5 20.41 26.58 20.41 29.16C20.41 31.74 22.5 33.83 25.08 33.83Z" fill="#2B8A3E" fill-opacity="0.960000" fill-rule="evenodd"/>
</svg>
