<svg width="133.333496" height="144.435547" viewBox="0 0 133.333 144.436" fill="none" xmlns="http://www.w3.org/2000/svg" xmlns:xlink="http://www.w3.org/1999/xlink">
	<desc>
			Created with Pixso.
	</desc>
	<defs/>
	<path id="Shape" d="M35.2349 4.88184C41.7432 -1.62695 52.2939 -1.62695 58.8008 4.87988L66.668 12.7393L74.5317 4.87891C81.0454 -1.62695 91.5947 -1.62695 98.1025 4.88184C104.611 11.3906 104.611 21.9492 98.1035 28.4482L93.23 33.3242L116.667 33.3242C125.868 33.3242 133.333 40.7891 133.333 49.9912L133.333 55.5469C133.333 62.8008 128.694 68.9756 122.222 71.2646L122.222 127.769C122.222 136.971 114.757 144.436 105.556 144.436L27.7778 144.436C18.5762 144.436 11.1113 136.971 11.1113 127.769L11.1113 71.2646C4.63916 68.9756 0 62.8008 0 55.5469L0 49.9912C0 40.7891 7.46484 33.3242 16.6665 33.3242L40.1074 33.3242L35.2397 28.4541C28.7192 21.9512 28.7197 11.3887 35.2349 4.88184ZM55.6333 33.3242L77.7041 33.3242C77.9175 32.9902 78.1699 32.6738 78.4614 32.3828L90.2485 20.5898C92.4146 18.4268 92.4146 14.9072 90.2461 12.7383C88.0762 10.5684 84.5586 10.5684 82.3848 12.7393L70.5962 24.5225C68.4272 26.6904 64.9116 26.6914 62.7422 24.5234L50.9458 12.7383C48.7764 10.5693 45.2607 10.5693 43.0889 12.7412C40.918 14.9092 40.918 18.4248 43.0923 20.5938L54.876 32.3828C55.1675 32.6738 55.4199 32.9902 55.6333 33.3242ZM116.659 44.3672L72.2026 44.3672L72.2144 61.0332L116.659 61.0332C119.724 61.0332 122.214 58.543 122.214 55.4775L122.214 49.9229C122.214 46.8574 119.724 44.3672 116.659 44.3672ZM27.7505 133.303L61.0791 133.303L61.103 44.4141L16.6392 44.4141C13.5742 44.4141 11.084 46.9043 11.084 49.9697L11.084 55.5254C11.084 58.5898 13.5742 61.0811 16.6392 61.0811L17.2871 61.1182L41.2095 61.1182C44.2695 61.1182 46.7505 63.5986 46.7505 66.6592C46.7505 69.7197 44.2695 72.2002 41.2095 72.2002L22.1948 72.2002L22.1948 127.747C22.1948 130.812 24.6855 133.303 27.7505 133.303ZM72.2715 72.1562L111.161 72.1562L111.161 127.712C111.161 130.777 108.67 133.268 105.605 133.268L72.2637 133.268L72.2715 72.1562Z" clip-rule="evenodd" fill="#2B8A3E" fill-opacity="1.000000" fill-rule="evenodd"/>
</svg>
